<?xml version="1.0" standalone="no"?>
<!DOCTYPE svg PUBLIC "-//W3C//DTD SVG 20010904//EN"
 "http://www.w3.org/TR/2001/REC-SVG-20010904/DTD/svg10.dtd">
<svg version="1.0" xmlns="http://www.w3.org/2000/svg"
 width="512.000000pt" height="512.000000pt" viewBox="0 0 512.000000 512.000000"
 preserveAspectRatio="xMidYMid meet">

<g transform="translate(0.000000,512.000000) scale(0.100000,-0.100000)"
fill="#000000" stroke="none">
<path d="M0 2560 l0 -2560 2560 0 2560 0 0 2560 0 2560 -2560 0 -2560 0 0
-2560z m2736 1865 c23 -14 52 -38 63 -54 11 -15 63 -132 115 -258 52 -127 185
-446 294 -709 110 -264 287 -690 395 -949 107 -258 291 -699 407 -980 117
-280 215 -529 218 -551 10 -89 -60 -205 -143 -240 -48 -20 -177 -18 -218 2
-36 18 -219 164 -1182 943 -368 298 -674 540 -679 538 -5 -2 -103 -239 -218
-527 -115 -289 -248 -621 -295 -737 l-85 -213 -254 0 c-216 0 -254 2 -254 15
0 8 52 139 116 292 64 153 166 397 226 543 60 146 216 519 345 830 323 778
529 1272 673 1620 140 337 159 377 192 406 45 42 80 53 162 54 67 0 86 -4 122
-25z"/>
<path d="M2389 3146 l-227 -566 182 -143 c157 -124 1109 -873 1144 -900 16
-12 28 -44 -265 678 -129 319 -311 769 -405 1000 -94 231 -178 437 -187 458
l-16 39 -226 -566z"/>
</g>
</svg>
