<svg xmlns="http://www.w3.org/2000/svg" viewBox="0 0 255.4 31.41"><defs><style>.cls-1{fill:#fcfcfc;}</style></defs><g id="Layer_2" data-name="Layer 2"><g id="Layer_1-2" data-name="Layer 1"><path class="cls-1" d="M67.25,31.14a1.79,1.79,0,0,1-1.53-.69L48.34,7.59V30.91h-4V2.2a2.06,2.06,0,0,1,2-2.06A1.82,1.82,0,0,1,48,.87L65.32,23.69V.46h4V29.13a2,2,0,0,1-2,2"/><path class="cls-1" d="M100,31.41a34.47,34.47,0,0,1-12-2.28l1-3.3a37,37,0,0,0,11,2c5,0,7.61-1.78,7.61-4.3,0-2.28-2-3.43-9-6.72s-9.73-5.39-9.73-9.51c0-5.17,4-7.27,11.44-7.27A44.7,44.7,0,0,1,111,1.46l-.63,3.39a45.34,45.34,0,0,0-9.91-1.24c-5.27,0-7.43,1-7.43,3.52s1.57,3.52,9,7c7.79,3.62,9.77,5.44,9.77,9.19,0,5.45-5.13,8.14-11.71,8.14"/><path class="cls-1" d="M130.53.46h4.1V30.91h-4.1Z"/><path class="cls-1" d="M169.49,17.1H159.31V27.44h10.18c3.47,0,5.59-2.2,5.59-5.26,0-2.88-2.21-5.08-5.59-5.08m-2-13.17h-8.2v9.74h8.2c3.29,0,5.68-2.1,5.68-5s-2.08-4.71-5.68-4.71m2,27H157.29a2,2,0,0,1-2.07-2.06V2.52A2.07,2.07,0,0,1,157.29.46h10.13c6.22,0,9.91,3.06,9.91,7.86a7.69,7.69,0,0,1-3.87,6.45,7.78,7.78,0,0,1,5.81,7.41c0,4.84-4,8.73-9.73,8.73"/><path class="cls-1" d="M199,30.91a2.06,2.06,0,0,1-2-2.06V.46H201V27.21h16.3v3.7Z"/><path class="cls-1" d="M245.26,31.41c-8.38,0-13.42-3.11-13.42-9.37a7.6,7.6,0,0,1,4.91-7.13,7.69,7.69,0,0,1-4-6.54c0-5.67,4.37-8.37,12.56-8.37a48.83,48.83,0,0,1,9.87,1.05l-.45,3.39A61.4,61.4,0,0,0,245,3.57c-5.32,0-8.15,1.46-8.15,5,0,2.79,2.61,5,6.08,5h7a1.77,1.77,0,0,1,0,3.53h-7.56c-4,0-6.49,2-6.49,5,0,4.43,4.1,5.76,9.23,5.76a44.56,44.56,0,0,0,9.64-1.1L255.4,30a40.12,40.12,0,0,1-10.14,1.37"/><path class="cls-1" d="M13.87,6.17l7.18,18L10.21,15.48l3.66-9.31ZM26.63,28.3l-11-27A1.79,1.79,0,0,0,13.87.13a1.83,1.83,0,0,0-1.75,1.19L0,30.91H4.14l4.8-12.2L23.26,30.45a2.31,2.31,0,0,0,1.53.69,2,2,0,0,0,2-2,2.65,2.65,0,0,0-.18-.83Z"/></g></g></svg>